 <svg  version="1.0" xmlns="http://www.w3.org/2000/svg"  width="450.000000pt" height="450.000000pt" viewBox="0 0 450.000000 450.000000"  preserveAspectRatio="xMidYMid meet">  <g transform="translate(0.000000,450.000000) scale(0.100000,-0.100000)" fill="#f40101" stroke="none"> <path d="M570 3415 l0 -484 108 -3 107 -3 0 -675 0 -675 -107 -3 -108 -3 0 -484 0 -485 690 0 690 0 0 485 0 485 -105 0 -104 0 -3 265 c-2 146 1 264 6 262 8 -3 197 -299 713 -1119 l238 -378 583 0 582 0 0 485 0 484 -107 3 -108 3 0 675 0 675 108 3 107 3 0 484 0 485 -690 0 -690 0 0 -485 0 -485 105 0 105 0 0 -272 -1 -273 -32 50 c-17 28 -153 242 -300 475 -148 234 -349 551 -446 705 l-177 280 -582 3 -582 2 0 -485z m1374 74 c127 -201 354 -561 505 -800 151 -239 276 -436 277 -438 2 -2 4 156 4 352 l0 357 -105 0 -105 0 0 450 0 450 650 0 650 0 -2 -447 -3 -448 -108 -3 -107 -3 2 -712 3 -712 108 -3 107 -3 0 -444 0 -445 -552 2 -552 3 -80 125 c-153 242 -750 1187 -834 1320 -46 74 -88 139 -93 144 -5 6 -9 -141 -9 -347 l0 -357 105 0 105 0 0 -445 0 -445 -650 0 -650 0 0 445 0 445 105 0 105 0 0 715 0 714 -102 3 -103 3 -3 448 -2 447 552 -2 551 -3 231 -366z"/> <path d="M680 3410 l0 -380 105 0 105 0 -2 -782 -3 -782 -102 1 -103 2 0 -380 0 -379 580 0 580 0 0 379 0 379 -101 -3 c-67 -2 -102 1 -105 9 -2 6 -3 236 -2 510 l3 500 141 -225 c78 -123 190 -300 249 -394 60 -93 203 -321 320 -505 116 -184 256 -406 311 -492 l99 -158 498 0 497 0 0 381 0 381 -75 -7 c-41 -3 -91 -3 -110 1 l-35 6 0 779 0 779 110 0 110 0 0 380 0 380 -585 0 -585 0 2 -377 3 -378 108 -3 107 -3 0 -506 c0 -317 -4 -503 -9 -498 -10 10 -443 693 -895 1412 l-221 352 -497 1 -498 0 0 -380z"/> <path d="M3975 758 c-52 -30 -61 -90 -19 -132 38 -37 84 -36 118 5 34 40 33 74 -3 110 -31 30 -63 36 -96 17z m90 -28 c42 -47 -12 -133 -71 -113 -43 14 -61 52 -45 91 21 50 81 61 116 22z"/> <path d="M3981 678 c1 -35 3 -45 7 -30 9 30 21 32 35 5 11 -19 12 -16 14 28 1 48 0 49 -28 49 -28 0 -29 -1 -28 -52z m47 30 c-7 -19 -38 -22 -38 -4 0 10 9 16 21 16 12 0 19 -5 17 -12z"/> </g> </svg> 