<?xml version="1.0" standalone="no"?>
<!DOCTYPE svg PUBLIC "-//W3C//DTD SVG 20010904//EN"
 "http://www.w3.org/TR/2001/REC-SVG-20010904/DTD/svg10.dtd">
<svg version="1.0" xmlns="http://www.w3.org/2000/svg"
 width="300.000000pt" height="155.000000pt" viewBox="0 0 300.000000 155.000000"
 preserveAspectRatio="xMidYMid meet">
<metadata>
Created by potrace 1.10, written by Peter Selinger 2001-2011
</metadata>
<g transform="translate(0.000000,155.000000) scale(0.100000,-0.100000)"
fill="#000000" stroke="none">
<path d="M1291 1183 c2 -112 -1 -178 -8 -180 -5 -2 -10 3 -10 11 0 8 4 13 9
10 4 -3 8 -1 8 4 0 6 -7 13 -16 16 -23 9 -55 -33 -51 -67 2 -18 -1 -31 -10
-34 -23 -9 -14 -48 23 -91 22 -26 63 -55 110 -79 67 -33 84 -37 153 -37 65 0
87 5 142 31 72 34 125 76 152 121 16 29 16 31 0 48 -10 9 -16 29 -15 43 2 32
-30 73 -52 65 -14 -5 -16 12 -16 155 l0 161 -211 0 -210 0 2 -177z m26 160
c-3 -5 80 -8 183 -8 103 0 186 3 183 8 -2 4 1 7 6 7 7 0 11 -51 11 -149 0
-145 4 -186 19 -176 4 2 8 -3 8 -11 0 -28 -22 -7 -33 32 l-12 39 1 -51 c2 -41
5 -50 17 -46 8 3 0 -14 -18 -38 -33 -45 -40 -70 -21 -70 20 0 -1 -18 -48 -41
-70 -33 -160 -31 -233 6 -30 16 -49 30 -42 32 18 7 15 28 -9 54 l-20 24 17
-27 c24 -40 4 -34 -30 8 -19 25 -34 34 -47 31 -21 -6 -27 21 -8 40 8 8 19 2
41 -20 17 -18 24 -23 17 -13 -12 17 -12 19 1 14 12 -4 15 6 16 61 1 52 0 58
-6 31 -5 -22 -8 22 -9 118 -1 101 3 152 10 152 5 0 8 -3 6 -7z m453 -364 c0
-12 -5 -16 -15 -12 -17 6 -51 -20 -67 -52 -5 -11 2 -6 16 10 14 17 25 25 26
18 0 -7 -10 -23 -22 -37 -19 -21 -25 -23 -35 -12 -17 20 65 130 85 114 6 -6
12 -19 12 -29z m-525 -69 c-11 -12 -13 -20 -6 -20 6 0 14 7 18 16 5 13 9 12
31 -8 l25 -23 -23 32 c-13 18 -21 35 -18 38 11 11 47 -52 43 -74 -2 -12 0 -19
4 -16 5 2 31 -7 57 -22 41 -23 61 -28 124 -28 64 1 83 5 129 30 29 16 71 49
92 74 21 24 39 39 39 32 0 -6 5 -10 12 -9 6 2 14 -5 16 -16 6 -29 -94 -119
-162 -145 -78 -29 -182 -28 -256 2 -30 13 -54 28 -53 35 2 6 -3 9 -10 6 -18
-7 -99 82 -95 104 3 9 10 16 16 15 7 -2 12 2 12 9 0 9 3 9 12 0 9 -9 7 -16 -7
-32z"/>
<path d="M1333 1304 c-4 -10 1 -22 11 -29 13 -10 14 -14 4 -19 -7 -3 -1 -4 15
-2 15 2 27 -1 27 -5 0 -5 -7 -9 -15 -9 -8 0 -15 -9 -15 -20 0 -12 -8 -32 -17
-47 -16 -24 -16 -26 3 -40 14 -10 16 -16 6 -22 -10 -6 -10 -14 -3 -34 13 -34
23 -35 15 -2 -4 18 -1 27 11 31 10 4 15 14 12 25 -3 11 -1 19 4 19 5 0 9 -7 9
-15 0 -9 7 -15 16 -13 33 6 21 -18 -34 -68 -32 -28 -58 -60 -59 -71 -5 -45
143 -161 190 -149 31 7 137 84 137 99 0 6 -15 -3 -32 -19 -37 -35 -99 -74
-117 -74 -16 0 -103 51 -97 57 2 2 22 -7 45 -21 49 -31 50 -31 98 -4 48 27 91
65 113 101 l17 27 -86 85 -86 84 -28 -27 c-22 -21 -30 -24 -36 -13 -5 7 -13
11 -19 7 -6 -4 -8 2 -4 16 4 18 2 20 -17 15 -27 -7 -24 12 4 27 11 6 29 17 40
24 18 12 18 13 -7 6 -17 -4 -28 -2 -28 4 0 6 -3 17 -6 26 -4 10 -1 16 9 16 16
0 30 27 21 41 -10 16 -24 9 -24 -12 0 -16 -5 -20 -27 -17 -20 2 -28 8 -27 21
2 22 -15 22 -23 1z m191 -216 c23 -33 20 -38 -24 -38 -22 0 -40 3 -40 8 0 12
30 52 40 52 5 0 16 -10 24 -22z m-74 -49 c0 -5 -7 -9 -15 -9 -8 0 -15 -3 -15
-7 0 -5 36 -8 80 -8 44 0 80 3 80 8 0 4 -7 7 -15 7 -8 0 -15 6 -15 13 0 7 10
13 23 13 21 0 23 -4 25 -68 1 -37 -2 -68 -7 -68 -5 0 -16 -3 -25 -6 -12 -5
-16 0 -16 20 0 19 5 26 19 26 13 0 18 6 17 18 -2 9 -7 15 -12 13 -5 -1 -8 -7
-6 -12 1 -5 -2 -9 -8 -9 -9 0 -14 14 -11 33 0 4 -21 7 -49 7 -27 0 -49 -3 -49
-7 3 -19 -2 -33 -11 -33 -5 0 -9 4 -7 9 1 5 -2 8 -8 8 -18 -3 -13 -27 6 -27
14 0 19 -7 19 -26 0 -20 -4 -25 -16 -20 -9 3 -20 6 -25 6 -13 0 -8 122 5 132
11 8 36 -1 36 -13z m74 -45 c11 -4 16 -18 15 -43 -2 -29 -3 -31 -6 -9 -6 36
-28 54 -47 38 -8 -6 -17 -24 -19 -38 -3 -21 -4 -19 -6 10 -1 43 21 58 63 42z
m-4 -42 c0 -11 -7 -18 -20 -18 -13 0 -20 7 -20 18 0 11 7 18 20 18 13 0 20 -7
20 -18z"/>
<path d="M1450 1308 c0 -3 23 -5 50 -5 36 2 50 -2 50 -12 0 -9 -7 -11 -21 -8
-19 5 -21 2 -17 -44 2 -38 0 -49 -12 -49 -12 0 -14 11 -12 49 4 47 3 49 -19
44 -21 -6 -21 -7 -4 -13 16 -6 14 -9 -15 -18 -18 -7 -31 -15 -27 -18 3 -3 14
-1 25 5 29 15 30 15 26 -24 -2 -33 0 -35 26 -35 28 0 29 1 26 45 -3 38 -1 45
14 45 10 0 21 6 23 13 4 10 6 10 6 0 1 -7 10 -13 20 -13 11 0 23 -4 26 -10 3
-5 15 -10 26 -10 11 0 18 4 14 9 -3 5 -1 12 5 16 15 9 12 45 -4 45 -8 0 -13
-8 -12 -17 1 -13 -8 -19 -28 -21 -25 -3 -28 -1 -23 17 5 21 -11 25 -25 6 -5
-7 -8 -6 -8 1 0 6 -23 10 -55 10 -30 -1 -55 -4 -55 -8z"/>
<path d="M1593 1240 c-5 -17 -11 -20 -32 -15 -25 6 -25 6 -6 -9 11 -8 25 -16
31 -16 6 0 19 -8 28 -19 16 -18 16 -18 -10 -13 -24 4 -26 2 -22 -16 4 -15 2
-19 -8 -15 -8 3 -14 1 -14 -4 0 -5 12 -10 26 -11 39 -3 56 -21 49 -51 -5 -25
-5 -25 10 -7 18 24 19 43 3 50 -10 3 -8 9 5 19 21 17 22 31 2 47 -8 7 -15 22
-15 34 0 12 -9 27 -21 34 -18 12 -21 11 -26 -8z"/>
<path d="M1260 880 c-11 -7 -11 -10 -2 -10 7 0 10 -5 6 -12 -4 -6 -3 -8 3 -5
6 4 13 0 17 -8 3 -8 11 -15 18 -15 10 0 10 2 -1 9 -8 5 -10 14 -6 21 5 8 4 11
-3 6 -6 -3 -12 0 -14 9 -2 10 -7 12 -18 5z"/>
<path d="M1412 783 c2 -9 9 -18 16 -19 7 -1 8 0 2 3 -15 7 -12 23 5 23 8 0 15
-6 15 -13 0 -7 9 -13 20 -14 11 -1 20 4 20 12 0 8 -6 12 -14 9 -8 -3 -17 -1
-21 5 -11 18 -47 13 -43 -6z"/>
<path d="M198 593 c8 -3 12 -28 12 -72 0 -79 16 -101 72 -101 51 0 68 24 68
96 0 33 5 65 12 72 9 9 4 12 -22 12 -31 0 -32 -1 -16 -13 16 -11 18 -24 14
-71 -5 -60 -16 -76 -53 -76 -34 0 -45 20 -45 82 0 44 4 59 18 67 13 8 7 10
-28 10 -25 0 -39 -3 -32 -6z"/>
<path d="M1778 588 c15 -15 16 -148 2 -148 -5 0 -10 -4 -10 -10 0 -6 30 -10
69 -10 60 0 69 2 74 20 6 24 -8 37 -17 15 -3 -9 -18 -15 -36 -15 l-30 0 0 68
c0 40 5 73 12 80 9 9 2 12 -32 12 -34 0 -41 -3 -32 -12z"/>
<path d="M1180 568 c0 -3 -3 -15 -6 -25 -6 -15 -4 -16 7 -5 7 6 19 12 26 12
18 0 18 -116 1 -123 -7 -3 5 -6 27 -6 30 -1 36 2 27 11 -17 17 -16 118 1 118
7 0 19 -6 26 -12 10 -11 12 -9 9 7 -3 17 -13 21 -61 25 -31 3 -57 2 -57 -2z"/>
<path d="M1637 556 c-15 -14 -23 -26 -18 -28 4 -2 1 -27 -7 -56 -10 -36 -19
-51 -28 -48 -7 3 -16 1 -19 -4 -3 -4 1 -10 7 -13 26 -9 47 14 62 67 9 30 22
57 29 59 9 4 9 6 0 6 -7 1 -10 7 -7 15 3 8 13 12 25 9 10 -3 19 0 19 6 0 19
-36 12 -63 -13z"/>
<path d="M370 559 c0 -5 5 -9 10 -9 14 0 12 -104 -2 -118 -9 -9 -6 -12 16 -12
24 0 26 2 17 14 -7 8 -11 34 -9 57 l3 43 44 -57 c24 -31 47 -57 52 -57 5 0 9
27 9 59 0 33 3 66 6 75 5 12 0 16 -22 16 -22 0 -25 -3 -16 -12 7 -7 12 -30 12
-51 l0 -40 -39 49 c-35 45 -81 69 -81 43z"/>
<path d="M530 558 c0 -4 5 -8 10 -8 14 0 12 -104 -2 -118 -9 -9 -4 -12 22 -12
26 0 31 3 22 12 -14 14 -16 118 -2 118 6 0 10 4 10 8 0 5 -13 9 -30 9 -16 0
-30 -4 -30 -9z"/>
<path d="M600 558 c0 -4 4 -8 9 -8 5 0 20 -29 33 -65 12 -36 26 -65 30 -65 4
0 17 27 29 60 12 33 26 63 30 66 18 11 8 24 -17 24 -21 0 -24 -3 -16 -13 11
-13 -4 -87 -18 -87 -10 0 -31 67 -25 82 4 11 -2 15 -25 15 -16 0 -30 -4 -30
-9z"/>
<path d="M758 508 c3 -37 0 -63 -8 -73 -11 -13 -5 -15 43 -15 42 0 56 4 61 16
9 24 -3 32 -15 11 -6 -9 -19 -17 -29 -17 -16 0 -20 7 -20 30 0 30 23 43 33 18
3 -7 6 0 6 16 1 23 -2 27 -11 18 -19 -19 -28 -14 -28 13 0 18 5 25 19 25 11 0
22 -6 24 -12 3 -7 6 -3 6 9 1 20 -3 22 -42 21 l-43 -2 4 -58z"/>
<path d="M870 560 c0 -5 5 -12 10 -15 14 -9 12 -99 -2 -113 -9 -9 -4 -12 22
-12 26 0 31 3 22 12 -14 14 -16 58 -4 58 5 0 17 -15 27 -34 17 -32 22 -34 72
-35 48 0 55 2 66 26 10 24 8 28 -26 57 -29 25 -35 34 -25 44 9 9 16 8 30 -5
16 -15 18 -15 18 0 0 37 -64 33 -76 -5 -5 -18 1 -28 31 -54 22 -18 35 -36 31
-43 -10 -16 -31 -14 -47 5 -12 15 -14 14 -19 -2 -5 -14 -11 -10 -30 21 -16 26
-20 40 -12 43 16 5 15 39 0 48 -18 11 -88 14 -88 4z m75 -20 c7 -12 -12 -40
-26 -40 -5 0 -9 11 -9 25 0 25 23 35 35 15z"/>
<path d="M1100 558 c0 -4 5 -8 10 -8 14 0 12 -104 -2 -118 -9 -9 -4 -12 22
-12 26 0 31 3 22 12 -14 14 -16 118 -2 118 6 0 10 4 10 8 0 5 -13 9 -30 9 -16
0 -30 -4 -30 -9z"/>
<path d="M1310 564 c0 -2 11 -20 25 -40 27 -40 32 -73 13 -92 -9 -9 -5 -12 20
-12 29 0 31 2 21 18 -16 25 -5 62 26 96 31 33 31 36 1 36 -18 0 -23 -5 -20
-17 2 -10 0 -25 -5 -33 -9 -13 -12 -12 -25 5 -9 12 -11 24 -5 31 6 7 -1 11
-21 11 -17 0 -30 -2 -30 -3z"/>
<path d="M1920 558 c0 -4 5 -8 10 -8 14 0 12 -104 -2 -118 -9 -9 -4 -12 22
-12 26 0 31 3 22 12 -14 14 -16 118 -2 118 6 0 10 4 10 8 0 5 -13 9 -30 9 -16
0 -30 -4 -30 -9z"/>
<path d="M2000 559 c0 -5 5 -9 10 -9 14 0 1 -113 -14 -122 -6 -4 5 -8 24 -8
23 0 30 3 22 9 -9 5 -12 24 -10 52 l3 44 19 -53 c10 -29 21 -50 24 -47 4 3 16
32 29 63 l22 57 0 -51 c1 -27 -4 -55 -11 -62 -9 -9 -5 -12 18 -12 l29 0 0 75
c0 67 -2 74 -19 71 -11 -1 -29 -22 -41 -46 l-22 -44 -20 45 c-14 31 -26 45
-41 46 -12 1 -22 -2 -22 -8z"/>
<path d="M2198 502 c3 -47 1 -67 -9 -73 -9 -5 9 -9 47 -9 47 0 63 4 68 16 10
26 7 28 -13 10 -27 -25 -55 -17 -59 17 -3 21 1 27 17 27 10 0 22 -6 24 -12 3
-7 6 0 6 17 1 22 -2 26 -11 17 -20 -20 -38 -14 -38 13 0 20 5 25 24 25 13 0
27 -6 29 -12 3 -7 6 -3 6 10 1 20 -3 22 -47 20 l-48 -2 4 -64z"/>
<path d="M2310 558 c0 -4 5 -8 10 -8 14 0 12 -104 -2 -118 -9 -9 -3 -12 28
-11 21 0 33 3 27 6 -14 5 -18 63 -5 63 5 0 16 -16 25 -35 16 -34 18 -35 74
-34 32 0 52 3 46 6 -16 6 -18 114 -2 130 8 8 1 11 -25 10 -20 -1 -36 -5 -36
-9 0 -4 5 -8 10 -8 6 0 10 -27 10 -60 0 -45 -4 -60 -14 -60 -20 0 -64 72 -48
78 16 5 15 39 0 48 -18 11 -98 13 -98 2z m78 -30 c-5 -32 -28 -35 -28 -4 0 17
5 26 16 26 10 0 14 -7 12 -22z"/>
<path d="M2545 545 c-14 -13 -25 -36 -25 -50 0 -57 96 -101 130 -60 18 22 5
31 -15 11 -22 -21 -41 -20 -65 4 -23 23 -26 59 -7 82 21 26 46 29 67 8 11 -11
22 -15 25 -10 9 15 -25 40 -56 40 -18 0 -39 -9 -54 -25z"/>
<path d="M2678 502 c3 -47 1 -67 -9 -73 -9 -6 -1 -9 26 -9 30 0 36 3 27 12
-13 13 -17 58 -4 58 4 0 15 -13 25 -29 13 -22 14 -30 5 -34 -7 -3 4 -6 24 -6
l38 -1 -35 49 -36 49 26 20 c32 25 32 32 -1 32 -17 0 -24 -4 -21 -13 3 -7 -4
-24 -14 -38 l-19 -24 0 26 c0 14 5 30 10 35 7 7 2 11 -18 11 l-28 0 4 -65z"/>
<path d="M1513 514 c-20 -32 -8 -58 30 -62 31 -4 62 36 52 68 -10 31 -60 27
-82 -6z m67 7 c0 -24 -21 -61 -34 -61 -22 0 -28 16 -15 44 11 24 49 37 49 17z"/>
<path d="M550 245 c-6 -8 -10 -22 -8 -32 4 -24 47 -24 62 0 9 15 7 21 -8 33
-25 18 -31 18 -46 -1z m40 -26 c0 -10 -7 -19 -15 -19 -15 0 -21 31 -9 43 11
10 24 -3 24 -24z"/>
<path d="M674 223 c1 -27 5 -33 24 -33 12 0 22 5 22 11 0 5 -4 7 -10 4 -6 -4
-10 6 -10 23 0 17 -5 29 -13 29 -9 0 -13 -12 -13 -34z"/>
<path d="M785 224 c0 -30 3 -34 28 -34 15 0 27 5 27 11 0 6 -7 9 -15 5 -11 -4
-15 1 -15 18 0 13 -6 26 -12 29 -9 3 -13 -6 -13 -29z"/>
<path d="M902 248 c-10 -10 -8 -16 10 -31 l23 -18 -24 6 c-16 5 -21 4 -17 -4
10 -16 36 -13 43 4 3 9 -3 23 -13 31 -18 14 -18 15 -1 10 11 -3 16 -2 12 4 -8
13 -18 13 -33 -2z"/>
<path d="M1022 251 c-8 -4 -12 -19 -10 -32 2 -18 10 -25 31 -27 15 -2 27 2 27
8 0 7 -8 9 -21 5 -17 -6 -20 -3 -17 17 2 16 9 22 22 20 11 -2 15 1 11 7 -7 13
-25 14 -43 2z"/>
<path d="M1140 245 c-20 -25 -8 -50 25 -50 21 0 31 5 33 18 4 21 -14 47 -33
47 -7 0 -18 -7 -25 -15z m40 -26 c0 -20 -15 -26 -25 -9 -9 15 3 43 15 35 5 -3
10 -15 10 -26z"/>
<path d="M1362 223 c1 -28 5 -33 25 -33 12 0 23 4 23 10 0 5 -7 7 -17 3 -13
-5 -15 -1 -10 24 4 22 2 30 -8 30 -10 0 -14 -11 -13 -34z"/>
<path d="M1560 223 c0 -29 3 -33 25 -33 14 0 25 4 25 10 0 5 -7 7 -17 3 -13
-5 -15 -1 -10 24 4 22 2 30 -9 30 -9 0 -14 -11 -14 -34z"/>
<path d="M1675 243 c3 -8 5 -24 5 -35 0 -14 6 -19 22 -16 16 2 24 12 29 36 4
17 3 32 -2 32 -5 0 -9 -14 -9 -31 0 -20 -4 -29 -12 -26 -7 2 -12 15 -11 29 1
16 -4 25 -13 25 -9 0 -13 -6 -9 -14z"/>
<path d="M1800 223 c0 -44 25 -44 26 0 0 22 -4 34 -13 34 -8 0 -13 -13 -13
-34z"/>
<path d="M1955 252 c-14 -9 -13 -62 0 -62 6 0 10 16 11 35 0 19 0 35 0 35 -1
0 -6 -4 -11 -8z"/>
<path d="M2085 238 c6 -21 5 -22 -8 -5 -21 25 -34 21 -39 -13 -3 -19 0 -30 8
-30 7 0 10 9 8 23 l-5 22 17 -22 c23 -32 34 -28 34 12 0 19 -5 35 -11 35 -6 0
-8 -9 -4 -22z"/>
<path d="M2168 223 c-3 -25 0 -33 12 -33 10 0 15 10 15 33 0 44 -22 44 -27 0z"/>
<path d="M2278 249 c-10 -5 -18 -19 -18 -29 0 -25 48 -39 61 -19 13 21 11 29
-6 23 -8 -4 -15 -11 -15 -17 0 -8 -3 -8 -11 0 -17 17 -3 44 17 36 12 -4 15 -3
10 5 -9 14 -16 15 -38 1z"/>
<path d="M2394 224 c0 -21 5 -34 13 -34 7 0 10 7 7 15 -4 9 0 15 10 15 10 0
13 -6 10 -15 -4 -9 -1 -15 7 -15 9 0 14 11 14 30 0 18 -5 30 -13 30 -7 0 -10
-4 -7 -10 3 -5 -1 -10 -10 -10 -9 0 -14 4 -11 9 3 5 0 11 -7 14 -9 3 -13 -5
-13 -29z"/>
<path d="M1268 220 c-4 -23 -1 -30 12 -30 13 0 16 7 12 30 -2 17 -8 30 -12 30
-4 0 -10 -13 -12 -30z"/>
<path d="M1898 220 c-3 -16 -1 -30 4 -30 4 0 8 6 8 13 0 9 2 9 9 -1 7 -11 9
-11 13 0 5 13 -13 48 -24 48 -3 0 -8 -13 -10 -30z"/>
</g>
</svg>
